<svg width="512" height="512" viewBox="0 0 512 512" fill="none" xmlns="http://www.w3.org/2000/svg">
<g clip-path="url(#clip0_137_5790)">
<path fill-rule="evenodd" clip-rule="evenodd" d="M315.303 36.0601C256.26 43.7471 211 95.5751 211 155.5C211 201.803 236.894 243.315 278.371 263.508C301.85 274.938 326.224 278.595 351.074 274.414C433.156 260.607 477.175 168.961 436.386 96.7981C424.288 75.3941 403.14 55.7161 381.94 46.1371C361.481 36.8921 337.162 33.2151 315.303 36.0601ZM318.5 56.0681C280.248 61.2551 248.314 87.7841 236.127 124.5C217.493 180.635 251.777 240.376 310.257 253.678C321.457 256.225 343.089 255.982 354.375 253.181C383.402 245.977 406.707 227.6 420.374 201.14C450.557 142.7 416.388 71.2181 351.69 57.4511C342.681 55.5341 327.196 54.8891 318.5 56.0681ZM327.5 75.9451C323.006 77.7851 321.522 80.8361 321.151 89.0051L320.797 96.8061L316.549 98.4281C310.272 100.825 304.522 106.269 301.16 112.995C295.72 123.882 295.769 133.893 301.308 143.073C305.544 150.094 312.684 154.828 329.241 161.599C336.51 164.571 343.541 168.087 344.867 169.412C350.065 174.611 348.227 186.53 341.397 191.902C334.918 196.998 322.927 197.011 312.865 191.932C303.975 187.444 298.532 188.137 295.422 194.151C293.262 198.328 294.285 203.22 297.965 206.317C301.928 209.652 309.4 213.152 315.459 214.512L320.5 215.644L321.075 222.971C321.601 229.675 321.932 230.55 324.967 233.261C327.835 235.825 328.839 236.151 332.39 235.674C338.903 234.801 341 231.583 341 222.459V215.029L346.87 212.066C354.361 208.284 361.096 201.543 364.679 194.239C366.867 189.78 367.577 186.737 367.86 180.598C368.281 171.498 367.059 166.45 362.817 159.766C358.692 153.267 352.249 148.838 339.942 144.043C319.822 136.202 315.89 132.835 317.944 125.206C318.513 123.096 320.144 120.274 321.569 118.935C323.855 116.788 325.076 116.5 331.904 116.5C338.817 116.5 340.12 116.817 344.073 119.458C350.306 123.622 355.233 123.542 359.102 119.211C362.633 115.26 362.821 111.514 359.721 106.913C357.569 103.721 348.501 98.1381 343.25 96.7721C341.181 96.2341 341 95.6121 341 89.0281C341 80.8401 340.121 78.6311 336.02 76.5101C332.81 74.8501 330.543 74.7001 327.5 75.9451ZM5.10992 247.396C-0.137078 250.304 0.072922 245.58 0.034922 361.3C-0.00307803 479.192 -0.294078 473.393 5.77792 475.908C7.86092 476.771 18.2469 477.016 43.5749 476.799L78.4999 476.5L83.6229 473.797C92.4589 469.136 99.9999 458.327 99.9999 450.322C99.9999 449.045 100.563 447.999 101.25 447.997C101.938 447.996 149.746 452.293 207.492 457.547C289.442 465.004 313.019 466.857 314.919 465.991C318.833 464.208 506.223 335.83 509.243 332.862L511.986 330.167L512.25 399.834C512.395 438.15 512.519 420.45 512.526 360.5C512.533 300.55 512.296 267.7 512 287.5C511.704 307.3 511.358 322.986 511.231 322.358C510.844 320.444 490.61 295.772 485.844 291.402C475.818 282.21 465.851 278.495 451.5 278.602C443.357 278.662 440.293 279.14 435 281.174C431.425 282.549 413.037 292.717 394.138 303.772L359.776 323.871L356.837 317.989C351.871 308.053 340.987 299.621 329.791 297.039C327.31 296.466 306.616 296.039 280.722 296.024L235.944 296L227.598 289.25C212.111 276.723 194.608 268.675 175.671 265.374C164.55 263.435 141.525 264.002 130 266.499C123.656 267.873 107.402 273.025 101.895 275.408C100.577 275.978 100.182 275.183 99.6799 270.949C98.5089 261.057 89.4049 250.386 79.6719 247.495C72.7329 245.435 8.80192 245.349 5.10992 247.396ZM0.481922 361.5C0.481922 421.45 0.602922 446.122 0.749922 416.327C0.896922 386.531 0.896922 337.481 0.749922 307.327C0.602922 277.172 0.482922 301.55 0.481922 361.5ZM19.9999 341.5V417H32.0769C44.0919 417 44.1689 417.015 47.0769 419.923C51.7159 424.562 50.7239 431.96 45.0099 435.335C42.8359 436.619 39.6529 437 31.0959 437H19.9999V447V457H45.3509C61.3249 457 71.8779 456.59 73.8809 455.892C80.2809 453.661 80.0019 458.001 79.9779 360.8C79.9569 278.647 79.8349 272.352 78.2279 270.367C74.8849 266.24 73.1189 266 46.0659 266H19.9999V341.5ZM138.235 285.431C128.393 287.305 118.152 290.474 108.243 294.712L99.9849 298.244L100.243 362.858L100.5 427.472L204.572 436.916L308.643 446.359L397.572 385.537C446.482 352.085 486.668 324.573 486.873 324.401C487.785 323.634 472.665 306.044 469.021 303.632C463.63 300.065 454.042 297.657 448.679 298.524C441.974 299.607 437.586 301.899 398.008 324.995L360.459 346.907L357.589 353.159C354.06 360.847 346.454 368.67 339 372.28C330.113 376.583 322.995 377.111 278.137 376.793L236.834 376.5L233.917 373.234C229.975 368.821 229.975 364.179 233.917 359.766L236.834 356.5L282.826 356L328.817 355.5L332.659 352.405C344.307 343.02 343.747 327.086 331.503 319.5L326.661 316.5L276.424 316L226.188 315.5L219.844 309.443C208.838 298.934 196.612 291.948 181.288 287.412C170.346 284.173 149.808 283.228 138.235 285.431Z" fill="#E00202"/>
</g>
<defs>
<clipPath id="clip0_137_5790">
<rect width="512" height="512" fill="white"/>
</clipPath>
</defs>
</svg>
