<svg width="512" height="512" viewBox="0 0 512 512" fill="none" xmlns="http://www.w3.org/2000/svg">
<g clip-path="url(#clip0_137_5758)">
<path fill-rule="evenodd" clip-rule="evenodd" d="M234.5 0.619222C191.852 5.04522 152.608 18.1542 120.774 38.6072L114.048 42.9282L109.774 41.4062C95.5751 36.3472 76.6541 35.3652 62.5001 38.9532C45.6601 43.2212 28.5771 54.0962 18.0441 67.2542C12.0731 74.7122 4.77909 88.9982 2.34509 98.0002C-0.129909 107.157 -0.108909 129.974 2.38309 139C4.44609 146.471 9.59709 158.041 13.2591 163.43L15.7711 167.127L12.4451 177.023C10.6151 182.465 7.95809 192.095 6.53809 198.423C1.47009 221.023 0.644091 228.933 0.581091 255.5C0.514091 283.745 1.73509 294.54 7.70809 318.5C30.7161 410.798 103.715 482.919 196.5 505.023C218.808 510.337 229.247 511.467 256 511.463C283.699 511.458 294.915 510.172 318.5 504.292C400.441 483.866 467.382 423.487 496.767 343.5C503.701 324.625 511 291.128 511 278.181C511 275.946 511.45 273.84 512 273.5C512.605 273.126 513 265.99 513 255.441C513 244.48 512.628 238 512 238C511.45 238 511 236.145 511 233.878C511 227.276 508.156 209.486 505.026 196.5C501.299 181.043 497.411 169.313 491.273 155.009L486.343 143.518L490.086 136.509C500.328 117.329 502.296 93.6822 495.37 73.0002C492.373 64.0522 489.863 61.0002 485.5 61.0002C481.983 61.0002 478 64.4462 478 67.4892C478 68.5122 479.193 72.7582 480.652 76.9252C484.202 87.0652 484.999 102.412 482.548 113.43C480.198 123.99 474.284 135.31 466.912 143.355C458.144 152.924 457.933 152.978 453.775 146.72C451.867 143.849 448.549 139.941 446.403 138.036L442.5 134.573L448 129.002C461.451 115.378 464.456 96.5262 455.937 79.2202C447.84 62.7732 428.526 52.7632 410.87 55.8622C392.333 59.1172 378.267 73.1582 374.784 91.8842C372.379 104.819 377.118 119.299 386.933 129.005L392.5 134.511L387.66 138.981C384.997 141.44 381.695 145.37 380.322 147.714C377.265 152.93 376.667 152.717 368.088 143.355C348.649 122.141 345.37 89.3152 360.179 64.1992C364.441 56.9712 375.971 45.4412 383.199 41.1792C397.633 32.6682 416.863 29.8002 432.68 33.8002C443.042 36.4202 450.546 39.9792 458.668 46.1272C463.345 49.6672 466.006 51.0002 468.398 51.0002C475.335 51.0002 477.666 43.4032 472.417 37.8992C468.503 33.7962 457.518 26.5612 450.461 23.4412C429.836 14.3192 401.7 14.8812 381.911 24.8092L374.5 28.5282L362.915 23.3162C340.67 13.3072 317.597 6.47622 292.5 2.46922C282.864 0.931223 243.573 -0.321778 234.5 0.619222ZM234.329 16.0192C200.599 19.3012 165.594 30.2092 137.861 46.0802L129.001 51.1502L134.417 55.5622C137.395 57.9882 141.121 61.5372 142.696 63.4482L145.56 66.9222L155.076 57.7112C165.329 47.7862 172.155 43.2162 182.758 39.1792C188.402 37.0302 191.21 36.6052 200 36.5702C211.441 36.5242 214.204 37.4012 219.193 42.6612C230.848 54.9462 233.739 91.6002 224.624 111.51C221.34 118.684 214.886 125.496 209.383 127.598C205.725 128.995 202.996 129.186 194.211 128.663C185.012 128.115 171.353 125.631 165.873 123.51C164.554 123 164.119 123.793 163.58 127.69C163.215 130.336 162.417 134.842 161.809 137.705L160.702 142.911L166.213 148.863C182.393 166.34 190.751 186.058 191.702 209C192.605 230.779 188.078 248.967 175.323 274.802C166.642 292.385 162.556 297.597 158.274 296.551C156.748 296.179 154.76 295.115 153.855 294.187C150.798 291.053 150.826 288.591 153.985 282.916C166.147 261.062 171.637 247.503 174.994 231.031C180.271 205.135 174.146 181.438 156.803 160.646L154.422 157.791L150.854 163.146C139.471 180.229 121.891 192.937 102.5 198.098C93.0101 200.624 74.9121 201.105 65.5001 199.081C55.3171 196.892 44.6221 192.211 35.7441 186.056L27.2431 180.163L25.1651 187.332C17.0181 215.432 13.7701 243.981 15.6831 270.659C17.2471 292.465 19.1541 296.337 50.0801 340.5C58.2041 352.101 68.1331 371.637 70.6641 381C71.8641 385.439 72.4491 391.454 72.5101 399.971L72.5981 412.441L82.5211 422.847C87.9781 428.57 96.9561 436.959 102.472 441.491C113.635 450.661 128.427 461.018 130.289 460.967C132.48 460.907 139.427 455.489 141.838 451.961C143.999 448.797 144.163 447.727 143.748 439.5C143.232 429.27 139.834 418.2 130.32 395.747C122.814 378.035 121 370.878 121 358.978C121 346.23 123.558 336.499 130.661 322.22C136.453 310.575 139.512 307 143.68 307C146.613 307 151 311.154 151 313.932C151 315.045 148.625 320.578 145.722 326.228C138.733 339.828 136.903 345.704 136.273 356.56C135.637 367.515 136.534 371.007 145.533 392.618C162.7 433.842 163.86 452.434 150.099 465.788C147.844 467.976 146 469.982 146 470.246C146 470.511 148.758 471.965 152.13 473.478L158.259 476.228L173.38 471.138C202.761 461.247 224.751 457.66 256 457.66C287.279 457.66 309.234 461.246 338.709 471.168L353.919 476.288L362.209 472.308C380.227 463.658 403.154 447.85 419.285 432.956L427.071 425.768L422.244 420.634C419.59 417.81 416.726 414.497 415.88 413.271L414.341 411.042L409.421 415.641C398.475 425.871 385.861 432.637 371.209 436.138C359.578 438.918 340.127 438.388 329.5 435.001C302.079 426.263 282.509 406.558 273.844 378.965C271.8 372.455 271.504 369.517 271.528 356C271.554 341.127 271.688 340.115 274.829 331C279.107 318.583 284.585 309.496 293.364 300.251C307.714 285.141 323.844 277.123 344.624 274.77C353.2 273.798 356.301 273.878 364.904 275.29C376.201 277.145 387.223 281.162 395.449 286.424L400.894 289.907L405.522 286.084C408.067 283.981 414.953 279.423 420.824 275.957C443.425 262.612 448 258.031 448 248.739C448 239.857 444.426 237.639 417 229.5C396.189 223.324 386.327 218.418 377.89 210.046C366.884 199.125 362.729 188.101 362.723 169.803C362.72 162.381 362.35 158.965 361.513 158.644C358.909 157.644 347.883 142.565 344.044 134.752C338.221 122.903 335.843 112.82 335.732 99.5002C335.681 93.4502 336.218 85.8002 336.924 82.5002C339.965 68.2952 347.297 53.9422 356.585 44.0132L361.132 39.1522L356.316 36.9932C334.981 27.4312 312.812 20.9252 290 17.5282C277.212 15.6252 246.841 14.8012 234.329 16.0192ZM192.585 52.1192C181.988 54.6042 167.234 64.7952 159.285 75.1202L155.069 80.5952L157.574 86.7972C158.952 90.2082 160.794 95.8952 161.667 99.4352C163.244 105.823 163.295 105.887 168.378 107.92C180.004 112.569 200.328 115.264 204.996 112.776C215.223 107.323 218.381 72.4272 210.113 56.2222C207.468 51.0372 202.328 49.8342 192.585 52.1192ZM65.2161 54.0192C54.4271 56.8452 44.6101 62.4312 35.9921 70.6462C22.1811 83.8122 15.7961 98.4922 15.6141 117.5C15.5551 123.72 16.0951 130.89 16.8571 134C18.8701 142.215 25.2591 154.767 30.6901 161.176C35.3301 166.651 41.8431 172.646 42.3121 171.874C46.0081 165.795 51.1131 159.253 53.7051 157.276L57.0451 154.728L51.7301 149.114C41.6311 138.447 38.5071 130.185 39.1891 115.938C39.5531 108.319 40.0901 106.203 43.3131 99.6812C51.8221 82.4642 70.6261 72.6092 88.7501 75.8682C103.085 78.4462 114.358 86.8752 120.741 99.7902C124.401 107.196 124.5 107.688 124.5 118.448C124.5 128.818 124.302 129.919 121.285 136.288C119.418 140.23 115.752 145.506 112.539 148.874L107.008 154.672L110.754 157.709C112.814 159.379 116.075 163.257 118 166.325C119.925 169.393 121.81 171.926 122.19 171.952C123.845 172.067 135.836 158.677 139.276 152.872C145.69 142.046 148.29 132.38 148.384 119C148.477 105.728 146.337 97.0392 140.256 86.0002C135.233 76.8812 122.493 64.4392 113.3 59.6752C98.6811 52.0992 80.6431 49.9772 65.2161 54.0192ZM407.5 72.3852L404.5 73.6792L412 78.5532C419.612 83.4992 436.171 89.9752 441.25 89.9912C444.526 90.0022 444.532 89.9642 442.059 85.1152C439.704 80.5002 434.059 75.3862 428.565 72.8902C423.734 70.6962 412.063 70.4162 407.5 72.3852ZM391.484 88.2562C388.964 94.4472 389.175 104.331 391.953 110.204C394.521 115.635 401.468 122.437 406.81 124.75C411.672 126.856 423.328 126.856 428.19 124.75C433.368 122.508 440.337 115.796 442.525 110.946C444.704 106.112 444.204 105.54 437.064 104.694C426.985 103.5 410.175 96.3352 400.5 89.1082C393.073 83.5612 393.384 83.5902 391.484 88.2562ZM77.2561 91.1102C69.5411 92.5352 69.1111 93.3362 74.0911 97.0112C82.2871 103.06 99.8471 110 106.957 110C109.103 110 109.097 109.949 106.363 104.926C100.728 94.5732 88.9001 88.9582 77.2561 91.1102ZM56.3671 107.257C55.4491 109.032 54.4841 113.473 54.2231 117.127C53.8241 122.709 54.1411 124.626 56.2141 129.135C59.6781 136.669 63.2121 140.467 69.7271 143.655C77.6151 147.514 86.3851 147.514 94.2731 143.655C100.313 140.7 103.879 137.117 107.137 130.731C109.404 126.288 108.716 125.044 103.98 125.015C95.4481 124.963 74.9831 116.507 64.2261 108.587L58.0361 104.03L56.3671 107.257ZM408.703 143.381C406.614 144.16 403.195 145.929 401.104 147.313C397.035 150.005 390.476 158.93 391.739 160.056C396.393 164.203 421.759 166.464 432.533 163.691C435.815 162.847 439.756 161.675 441.29 161.087C443.798 160.127 443.961 159.79 442.896 157.759C438.055 148.529 429.401 142.921 419.1 142.338C414.978 142.105 411.074 142.497 408.703 143.381ZM468.612 162.565C460.152 169.38 450.836 174.162 439.288 177.614C431.785 179.858 428.599 180.245 417.5 180.264C406.265 180.282 403.302 179.924 395.678 177.626C390.825 176.164 385.106 174.074 382.967 172.983C380.829 171.893 378.837 171 378.54 171C377.428 171 378.057 178.83 379.588 184.068C382.837 195.18 389.997 202.92 402.142 208.452C405.089 209.795 414.7 212.983 423.5 215.538C455.249 224.755 463.514 231.628 463.38 248.7C463.271 262.579 455.485 273.18 437.909 283.38C427.352 289.506 414.101 298.028 413.421 299.128C413.137 299.587 415.212 303.009 418.032 306.731C424.284 314.985 429.134 324.862 432.156 335.5C433.981 341.926 434.423 345.96 434.403 356C434.375 370.508 432.795 378.152 427.373 390.012L423.724 397.995L426.345 401.747C427.787 403.811 430.715 407.517 432.851 409.982C437.591 415.451 437.062 415.77 448.455 400.553C491.653 342.853 506.79 270.517 490.316 200.5C487.602 188.966 481.717 170.938 477.805 162.177L475.5 157.015L468.612 162.565ZM72.9691 163.536C67.7111 165.157 61.1101 170.468 57.9031 175.658C55.7721 179.105 55.7501 179.344 57.4501 180.587C60.5371 182.844 72.5311 185 82.0001 185C91.4691 185 103.463 182.844 106.55 180.587C108.25 179.344 108.228 179.105 106.097 175.658C99.2171 164.525 85.7481 159.597 72.9691 163.536ZM0.413091 256.5C0.414091 266.4 0.564091 270.315 0.746091 265.199C0.928091 260.084 0.927091 251.984 0.744091 247.199C0.561091 242.415 0.412091 246.6 0.413091 256.5ZM344.414 290.108C325.945 292.209 307.898 303.359 297.393 319.161C287.684 333.766 283.85 353.236 287.382 370C290.171 383.238 298.899 398.028 309.141 406.872L312.782 410.015L315.946 405.084C317.686 402.372 321.058 398.358 323.439 396.163L327.767 392.174L322.059 386.304C318.919 383.075 315.166 377.931 313.719 374.872C303.492 353.253 312.794 327.648 334.644 317.271C356.279 306.997 381.815 316.421 392.143 338.492C399.905 355.079 395.124 377.509 381.42 388.806L377.544 392L381.196 395.01C383.205 396.666 386.707 400.804 388.978 404.205L393.108 410.39L400.53 402.699C406.311 396.708 408.931 392.962 412.379 385.754C417.973 374.064 419.418 367.904 419.36 356C419.166 315.791 384.738 285.522 344.414 290.108ZM346.157 328.995C340.955 330.225 340.511 331.396 344.204 334.151C352.262 340.163 365.46 345.916 374.75 347.467C379.992 348.341 380.198 347.28 376.053 340.745C370.001 331.201 357.541 326.304 346.157 328.995ZM30.5521 341.25C33.5781 351.16 55.1861 392.147 56.6261 390.707C57.6291 389.705 54.5371 380.034 50.3271 371C46.4811 362.749 31.6411 339 30.3321 339C30.0751 339 30.1741 340.012 30.5521 341.25ZM326.871 345.25C324.733 350.319 325.08 363.651 327.477 368.5C336.136 386.014 360.345 389.469 373.347 375.046C376.68 371.35 380.722 364.178 379.809 363.583C379.639 363.472 376.29 362.856 372.366 362.214C360.977 360.35 348.942 355.456 338.383 348.396C333.121 344.878 328.687 342 328.529 342C328.372 342 327.626 343.462 326.871 345.25ZM343.453 401.266C337.633 403.623 332.955 407.206 329.9 411.645C328.211 414.101 327.055 416.7 327.332 417.422C329.094 422.015 359.448 424.283 371 420.683C378.817 418.248 379.461 417.73 378.021 415.039C375.83 410.945 369.67 404.873 365.568 402.762C360.654 400.233 348.101 399.384 343.453 401.266ZM224.5 474.509C205.441 477.196 179.733 483.712 182.368 485.186C184.895 486.6 205.77 491.783 215.5 493.412C244.972 498.346 274.966 497.834 304.5 491.894C315.605 489.66 329.058 486.051 330.317 484.968C331.461 483.985 310.885 478.452 296.5 475.874C280.926 473.083 240.097 472.309 224.5 474.509Z" fill="#E00202"/>
</g>
<defs>
<clipPath id="clip0_137_5758">
<rect width="512" height="512" fill="white"/>
</clipPath>
</defs>
</svg>
