<svg width="513" height="512" viewBox="0 0 513 512" fill="none" xmlns="http://www.w3.org/2000/svg">
<path fill-rule="evenodd" clip-rule="evenodd" d="M232.5 0.712091C186.005 6.36009 146.049 24.4931 110.824 55.9341C102.93 62.9791 100.537 65.8111 97.832 71.3061C94.933 77.1951 94.524 78.9911 94.579 85.5981C94.628 91.4701 95.205 94.3771 97.166 98.6361C103.341 112.049 117.667 119.793 132.089 117.513C139.688 116.312 144.573 113.498 154.239 104.754C175.897 85.1641 199.955 73.0421 228.272 67.4511C244.118 64.3231 267.882 64.3231 283.728 67.4511C312.045 73.0421 336.103 85.1641 357.761 104.754C362.567 109.102 368.373 113.57 370.661 114.684C379.685 119.074 392.604 118.794 400.733 114.031C418.571 103.582 422.928 81.3211 410.361 64.8441C406.315 59.5401 386.556 43.0891 375 35.4031C369.225 31.5631 358.2 25.3471 350.5 21.5921C329.716 11.4541 314.311 6.46509 291.5 2.48409C278.529 0.220091 244.87 -0.790909 232.5 0.712091ZM237 20.7521C204.145 24.1161 173.231 35.2781 146.558 53.4071C136.66 60.1341 124.82 69.9181 119.207 76.0071C115.483 80.0481 115 81.1221 115 85.3711C115 92.8681 119.77 97.6161 127.302 97.6161C131.15 97.6161 133.467 96.1011 144.683 86.2511C174.838 59.7671 215.41 44.6161 256.173 44.6161C296.709 44.6161 337.166 59.7711 367.317 86.2511C378.533 96.1011 380.85 97.6161 384.698 97.6161C392.239 97.6161 397 92.8691 397 85.3511C397 80.9801 396.557 80.0561 392.25 75.4471C385.519 68.2441 369.993 55.9721 358.931 49.1131C322.834 26.7311 278.75 16.4771 237 20.7521ZM240.176 91.6191C224.539 93.8251 207.446 99.7031 193.541 107.657C183.042 113.661 168.138 126.162 164.277 132.203C153.558 148.971 159.925 170.917 178 179.503C182.412 181.599 184.984 182.116 191 182.116C200.945 182.116 206.337 179.922 215.79 172.032C229.662 160.453 239.908 156.494 256 156.494C272.101 156.494 282.337 160.452 296.235 172.053C306.155 180.334 312.888 182.978 322.5 182.371C334.393 181.619 344.002 175.257 349.741 164.333C352.136 159.774 352.483 157.981 352.491 150.116C352.503 138.484 350.278 133.657 340.576 124.266C325.269 109.447 304.738 98.6701 282 93.5181C272.166 91.2901 249.727 90.2711 240.176 91.6191ZM243.906 111.59C222.59 114.275 200.656 124.345 186.557 137.92C182.808 141.529 179.823 145.342 179.406 147.052C178.425 151.076 180.839 157.445 184.323 160.025C188.071 162.8 194.953 162.845 198.323 160.116C199.681 159.016 203.427 155.974 206.646 153.356C214.305 147.129 225.669 141.27 235.557 138.452C246.762 135.258 265.172 135.238 276.285 138.409C286.351 141.28 297.979 147.238 305.354 153.302C308.573 155.95 312.319 159.016 313.677 160.116C317.047 162.845 323.929 162.8 327.677 160.025C331.161 157.445 333.575 151.076 332.594 147.052C330.969 140.388 312.205 125.869 296.915 119.445C281.025 112.769 259.671 109.604 243.906 111.59ZM247 183.493C237.33 186.669 228.361 195.121 225.349 203.896C219.805 220.052 227.103 237.065 242.924 244.861C249.457 248.08 262.543 248.08 269.076 244.861C289.258 234.915 294.891 209.833 280.528 193.858C273.839 186.419 267.242 183.293 257.512 182.952C253.106 182.798 248.375 183.042 247 183.493ZM250.198 204.289C243.742 207.471 241.842 216.898 246.533 222.473C251.77 228.696 260.23 228.696 265.467 222.473C270.215 216.83 268.231 207.377 261.643 204.251C257.33 202.204 254.408 202.214 250.198 204.289ZM37.105 285.199C34.137 285.997 29.412 287.873 26.605 289.369C20.059 292.857 9.249 303.66 5.77 310.191C-0.0249982 321.068 1.82943e-06 320.686 1.82943e-06 397.598C1.82943e-06 462.91 0.136002 468.65 1.83 474.76C6.49 491.565 20.016 505.116 36.766 509.761C43.186 511.541 52.049 511.616 256.018 511.616C487.048 511.616 473.515 511.936 484.812 506.211C495.591 500.749 506.584 487.632 509.575 476.663C510.407 473.612 511.518 470.335 512.044 469.38C513.244 467.199 513.351 324.281 512.151 325.022C511.685 325.311 510.77 323.164 510.118 320.252C507.601 309.008 496.055 294.718 484.931 289.081C473.971 283.527 475.617 283.616 383.74 283.616C291.612 283.616 294.774 283.427 292.195 289.088C291.538 290.53 291 292.611 291 293.713C291 296.525 293.587 301.209 295.713 302.245C296.696 302.724 336.2 303.341 383.5 303.616C468.857 304.112 469.535 304.132 474.149 306.265C480.08 309.007 485.986 314.913 489.077 321.193L491.5 326.116V397.616V469.116L489.077 474.039C485.993 480.306 480.69 485.609 474.423 488.693L469.5 491.116H256H42.5L37.577 488.693C31.31 485.609 26.007 480.306 22.923 474.039L20.5 469.116V397.616C20.5 326.571 20.514 326.086 22.649 321.467C25.391 315.536 31.297 309.63 37.577 306.539L42.5 304.116L128.5 303.616C175.8 303.341 215.304 302.724 216.287 302.245C218.443 301.194 221 296.512 221 293.616C221 290.31 218.394 286.117 215.528 284.811C213.557 283.913 191.752 283.632 127.703 283.682C56.547 283.737 41.611 283.987 37.105 285.199ZM251.11 285.012C242.441 289.817 246.068 303.616 256 303.616C261.067 303.616 266 298.731 266 293.713C266 286.205 257.703 281.357 251.11 285.012ZM0.474002 397.616C0.474002 437.491 0.598002 453.804 0.750002 433.866C0.901002 413.929 0.901002 381.304 0.750002 361.366C0.598002 341.429 0.474002 357.741 0.474002 397.616ZM125.117 349.247C123.836 350.144 122.197 352.293 121.475 354.022C120.286 356.867 120.918 361.02 128.111 397.641C132.483 419.902 136.573 439.407 137.201 440.984C138.681 444.708 143.521 447.608 148.265 447.612C151.148 447.615 152.828 446.855 155.441 444.366C158.499 441.454 159.609 438.646 166.117 417.366C170.111 404.304 173.632 393.621 173.94 393.628C174.248 393.634 177.374 403.197 180.887 414.878C184.4 426.559 188.102 437.926 189.116 440.138C192.754 448.082 201.392 450.065 207.53 444.366L211.03 441.116L219.015 401.151C223.407 379.171 227 359.679 227 357.836C227 353.435 225.592 350.974 222.02 349.126C217.719 346.902 214.414 347.274 210.947 350.372C208.015 352.992 207.631 354.277 203.184 376.372C200.611 389.156 198.257 399.616 197.952 399.616C197.647 399.616 194.771 390.953 191.559 380.366C183.331 353.24 182.373 350.86 178.972 349.102C177.392 348.285 174.788 347.616 173.185 347.616C168.002 347.616 165.565 350.666 162.235 361.322C160.552 366.709 157.039 377.866 154.428 386.116L149.681 401.116L144.857 377.116C140.295 354.422 139.867 352.966 137 350.366C133.491 347.183 128.707 346.732 125.117 349.247ZM254.4 351.016L251 354.416V397.616V440.816L254.4 444.216C258.932 448.748 263.85 448.92 268.077 444.693L271 441.77V397.616V353.462L268.077 350.539C263.85 346.312 258.932 346.484 254.4 351.016ZM301.5 348.561C300.4 349.012 298.6 350.38 297.5 351.603C295.564 353.755 295.5 355.234 295.5 397.64V441.455L297.91 444.02C302.507 448.914 310.852 448.089 313.786 442.451C314.562 440.961 315.092 434.148 315.251 423.616L315.5 407.116L326 406.869C339.43 406.552 340.657 406.226 343.027 402.339C345.975 397.504 345.568 393.984 341.6 390.016L338.2 386.616H326.562H314.925L315.212 377.366L315.5 368.116L328.59 367.838C341.553 367.563 341.706 367.532 344.44 364.679C347.438 361.549 348.118 356.574 346.07 352.747C343.692 348.303 340.314 347.612 321.3 347.679C311.51 347.714 302.6 348.111 301.5 348.561ZM374.766 350.534L371.5 353.452V397.616V441.78L374.766 444.698C380.414 449.745 387.663 448.06 390.606 441.017C392.648 436.13 392.648 359.102 390.606 354.215C387.663 347.172 380.414 345.487 374.766 350.534Z" fill="#E00202"/>
</svg>
