<svg width="512" height="512" viewBox="0 0 512 512" fill="none" xmlns="http://www.w3.org/2000/svg">
<g clip-path="url(#clip0_137_5785)">
<path fill-rule="evenodd" clip-rule="evenodd" d="M264.5 0.692958C212.399 5.33396 163.488 27.622 125.622 63.976C108.844 80.084 93.4062 100.445 83.0412 120.132L77.9812 129.744L70.2402 130.208C57.6942 130.961 54.8072 132.939 29.8632 157.872C17.9622 169.767 7.03822 181.422 5.58622 183.772C0.936221 191.3 -0.333779 198.719 0.326221 214.5C1.18222 234.949 5.30022 252.623 14.2752 274.372C17.6692 282.597 18.8432 284.451 21.3162 285.491C22.9482 286.177 25.1312 286.517 26.1662 286.246C28.4842 285.64 32.0002 281.317 32.0002 279.073C32.0002 278.162 30.1682 272.935 27.9302 267.458C16.3622 239.159 11.7082 205.222 17.7832 193.482C18.9182 191.29 29.4312 179.99 41.1722 168.343C58.5982 151.057 63.2602 146.963 66.6542 145.964C71.4502 144.552 76.1912 145.207 80.5882 147.89C82.3402 148.958 93.4802 162.795 106.338 179.872C125.352 205.126 129 210.509 129 213.31C129 216.303 127.306 218.315 112.639 232.743C89.6562 255.352 89.5332 256.136 105.274 279.711C138.279 329.141 182.859 373.721 232.289 406.726C247.928 417.168 251.668 418.616 258.535 416.887C262.634 415.855 265.003 413.851 279.257 399.361C293.642 384.738 295.704 383 298.668 383C301.437 383 306.946 386.725 332.049 405.57C349.8 418.896 362.909 429.442 364.054 431.32C366.791 435.806 367.457 440.52 366.036 445.346C365.037 448.74 360.943 453.402 343.657 470.828C332.021 482.558 320.7 493.133 318.5 494.328C314.92 496.272 313.083 496.489 301 496.392C279.861 496.223 260.131 491.281 234.414 479.716C197.84 463.267 148.169 428.154 115.989 396.002C96.0592 376.088 69.9612 342.978 53.6032 316.855C44.7002 302.637 42.5232 300.725 37.3232 302.557C35.7332 303.117 34.1172 304.795 33.3442 306.69C32.1582 309.599 32.2892 310.346 34.8372 315.19C42.0202 328.845 64.1402 359.882 82.0952 381.5C94.3042 396.201 119.463 420.861 135.843 434.184C200.972 487.156 259.572 513.758 306.84 511.81C316.391 511.417 318.411 510.996 324.552 508.122C330.714 505.239 333.95 502.413 353.691 482.672C379.027 457.336 381.126 454.248 381.826 441.282L382.215 434.063L391.858 428.916C412.284 418.011 427.799 406.351 445.544 388.569C462.19 371.888 474.919 354.72 485.553 334.609C497.825 311.4 505.25 288.845 509.499 261.866C511.162 251.307 513.072 218.444 512.803 205L512.633 196.5L512 204.5C511.578 209.835 511.306 211.001 511.183 208C510.899 201.043 507.35 180.545 504.596 169.958C497.055 140.962 482.639 112.065 463.376 87.327C453.138 74.18 450.16 72.687 444.821 78.025C440.783 82.063 441.4 84.13 449.792 94.686C460.228 107.811 467.505 119.307 474.996 134.5C501.391 188.032 503.879 250.765 481.818 306.5C463.421 352.981 426.55 394.13 383.588 416.13L375.148 420.451L372.816 417.976C371.533 416.614 368.131 413.725 365.256 411.556L360.029 407.611L371.765 401.534C425.888 373.506 461.826 326.206 474.742 266C477.237 254.369 477.426 251.763 477.462 228.5C477.496 206.375 477.239 202.214 475.232 192.316C468.492 159.07 455.119 130.247 434.952 105.5C386.862 46.487 309.63 20.985 235.5 39.641C208.671 46.394 181.176 60.459 160 78.265C153.485 83.743 152.46 85.052 152.193 88.229C151.806 92.843 154.637 96 159.163 96C161.551 96 164.08 94.549 169.495 90.069C202.258 62.969 241.136 49.037 284 49.037C369.979 49.037 441.618 107.7 459.735 192.942C462.154 204.323 462.408 207.562 462.447 227.5C462.485 246.644 462.189 250.993 460.172 261C449.986 311.535 421.009 354.005 378.895 380.125C369.613 385.882 354.363 393.511 348.816 395.173L345.125 396.279L326.939 382.727C307.555 368.283 303.399 366.272 295.575 367.548C288.702 368.67 284.81 371.654 270.064 387.106C262.247 395.298 255.098 402.005 254.176 402.011C251.743 402.026 226.616 384.794 211.5 372.743C175.081 343.709 145.182 311.452 119.118 273.076C114.103 265.692 110 258.892 110 257.965C110 257.038 117.157 249.354 125.905 240.89C141.02 226.264 141.895 225.206 143.525 219.579C146.46 209.454 145.234 206.481 129.335 185.145L115.721 166.875L116.827 163.184C119.561 154.057 132.153 131.228 140.437 120.379C144.687 114.813 145.166 110.164 141.811 107.039C138.624 104.069 134.346 104.418 131.081 107.913C126.342 112.987 116.908 127.764 110.505 140.144L104.319 152.105L100.017 146.302C97.6502 143.111 94.7662 139.729 93.6072 138.787L91.5002 137.073L95.8462 128.523C104.518 111.461 118.406 92.679 133.543 77.543C197.24 13.845 294.356 -2.86004 375.547 35.915C389.474 42.566 400.556 49.401 414.11 59.699C424.734 67.77 427.541 68.55 431.545 64.545C436.585 59.506 434.918 56.328 422.21 46.755C380.718 15.5 332.748 -0.455042 282.144 0.167958C274.64 0.260958 266.7 0.496958 264.5 0.692958ZM188 177.875C178.009 181.165 169.942 188.951 167.375 197.783C165.862 202.987 165.879 203.361 167.746 205.87C170.742 209.894 174.42 210.824 177.689 208.383C179.166 207.28 180.804 205.056 181.33 203.439C183.96 195.348 191.297 190.926 198.759 192.935C204.61 194.511 209.003 199.813 208.99 205.285C208.972 213.014 205.924 218.127 182.086 250.408C168.441 268.886 167.306 271.748 171.826 276.272C173.987 278.436 174.755 278.509 198.33 278.798C221.788 279.087 222.698 279.025 225.304 276.976C228.667 274.33 229.005 269.005 226 266C224.167 264.167 222.667 264 208 264C199.2 264 192 263.756 192 263.457C192 263.159 197.425 255.396 204.056 246.207C210.687 237.018 217.98 225.749 220.262 221.164C223.894 213.868 224.409 211.998 224.39 206.164C224.352 194.717 218.565 185.381 208.437 180.425C202.669 177.603 192.63 176.351 188 177.875ZM267.404 178.974C263.437 180.578 258.259 188.078 244.769 211.758C224.75 246.899 225.049 246.14 229.455 250.545C231.884 252.975 232.098 253 250.455 253H269L269.015 262.25C269.023 267.662 269.551 272.53 270.286 273.983C271.9 277.172 276.105 278.7 279.75 277.422C283.42 276.134 284.873 271.611 284.944 261.25L285 253L287.75 252.968C293.367 252.903 296.725 247.63 294.508 242.356C293.149 239.124 291.336 238 287.481 238H285.125L284.812 212.75C284.514 188.67 284.397 187.334 282.275 183.922C278.963 178.597 273.134 176.658 267.404 178.974ZM342.332 179.48C339.779 181.268 305 267.396 305 271.928C305 273.899 305.861 275.532 307.635 276.927C310.855 279.46 314.103 279.574 316.836 277.25C319.146 275.285 354 188.971 354 185.216C354 182.236 349.755 178 346.768 178C345.49 178 343.494 178.666 342.332 179.48ZM370.455 180.455C367.511 183.398 367.312 186.928 369.909 190.139C371.769 192.439 372.323 192.513 391.221 193L410.624 193.5L393.731 231.848C377.865 267.866 376.913 270.375 378.057 273.137C380.109 278.091 385.921 279.636 389.766 276.25C392.081 274.211 430 188.276 430 185.068C430 183.881 428.895 181.805 427.545 180.455L425.091 178H399H372.909L370.455 180.455ZM0.385221 210C0.385221 216.875 0.545221 219.688 0.740221 216.25C0.936221 212.813 0.936221 207.188 0.740221 203.75C0.545221 200.313 0.385221 203.125 0.385221 210ZM263.917 209C255.289 223.679 248 236.671 248 237.369C248 237.716 252.685 238 258.41 238H268.82L269.477 229.75C269.838 225.213 269.991 216.55 269.817 210.5L269.5 199.5L263.917 209Z" fill="#E00202"/>
</g>
<defs>
<clipPath id="clip0_137_5785">
<rect width="512" height="512" fill="white"/>
</clipPath>
</defs>
</svg>
