<svg width="96" height="44" viewBox="0 0 96 44" fill="none" xmlns="http://www.w3.org/2000/svg">
<path d="M13.5091 16.8211V21.0122H9.04506V30.8955H4.46405V21.0122H0V16.8211H13.5091Z" fill="#2E2E2E"/>
<path d="M12.5539 30.8955V16.8211H21.7159C22.8466 16.9185 23.7758 17.2402 24.5035 17.786C25.2313 18.3253 25.7641 19.0498 26.102 19.9596C26.3619 21.3176 26.3749 22.367 26.141 23.1078C25.9071 23.8485 25.4977 24.4658 24.9129 24.9597C24.3281 25.4535 23.9642 25.7362 23.8212 25.8077C23.6783 25.8726 23.5743 25.9766 23.5093 26.1195C23.5483 26.3665 23.9642 26.5614 24.7569 26.7044H27.6615V30.8955H24.2891C22.2618 30.9345 20.6568 30.3107 19.4742 29.0241L17.6418 27.0942V30.8955H12.5539ZM17.6418 20.6418V23.0201H20.9362C21.8719 22.7082 22.3592 22.3053 22.3982 21.8115C22.3332 21.2916 21.8329 20.9017 20.8972 20.6418H17.6418Z" fill="#2E2E2E"/>
<path d="M27.4666 16.8211H32.0476V30.8955H27.4666V16.8211Z" fill="#2E2E2E"/>
<path d="M36.749 30.8955V16.8211H45.0533C46.1775 16.8211 47.1684 16.9705 48.0261 17.2694C48.8838 17.5683 49.6083 17.9712 50.1996 18.478C50.7909 18.9849 51.2815 19.6704 51.6714 20.5346C52.0678 21.3988 52.266 22.523 52.266 23.907C52.1945 25.1871 51.9801 26.2755 51.6227 27.1722C51.2653 28.0689 50.7909 28.7772 50.1996 29.297C49.6083 29.8168 48.8838 30.2197 48.0261 30.5056C47.1749 30.7915 46.106 30.9215 44.8194 30.8955H36.749ZM41.525 21.4021V26.4509H44.2053C44.8096 26.4509 45.297 26.36 45.6674 26.178C46.0377 25.9896 46.3399 25.7524 46.5738 25.4665C46.8077 25.1806 46.9572 24.6673 47.0222 23.9265C47.0027 23.2507 46.8695 22.7536 46.6226 22.4352C46.3821 22.1104 46.0702 21.8569 45.6869 21.675C45.3035 21.4931 44.8032 21.4021 44.1859 21.4021H41.525Z" fill="#FF2525"/>
<path d="M51.5837 30.8955L56.2134 16.8211H63.2019L67.9096 30.8955H62.5879L61.7009 28.3613H57.5195L56.6325 30.8955H51.5837ZM59.7223 19.9401L57.7047 25.5152H61.5839L59.7223 19.9401Z" fill="#FF2525"/>
<path d="M80.5513 16.8211V21.0122H76.0872V30.8955H71.5062V21.0122H67.0422V16.8211H80.5513Z" fill="#FF2525"/>
<path d="M79.674 30.8955L84.3038 16.8211H91.2923L96 30.8955H90.6782L89.7912 28.3613H85.6099L84.7229 30.8955H79.674ZM87.8126 19.9401L85.7951 25.5152H89.6743L87.8126 19.9401Z" fill="#FF2525"/>
<path fill-rule="evenodd" clip-rule="evenodd" d="M44.8433 37.1971C37.8226 41.08 31.3867 43.3162 26.9396 43.3162C22.4925 43.3162 20.5292 41.08 21.2742 37.1971C21.5082 35.9777 22.0089 34.6074 22.7724 33.115H21.8343C18.4414 39.5958 19.7922 43.944 26.3119 43.944C31.3418 43.944 38.4714 41.3558 45.8609 37.1971H44.8433ZM51.7243 6.74696C47.4002 9.13847 42.9409 12.1105 38.753 15.4453H37.851C49.0451 6.49755 62.286 6.10352e-05 70.2558 6.10352e-05C78.0939 6.10352e-05 78.4612 6.28467 72.0965 15.0039H71.1923C73.4794 11.8481 74.8549 9.03244 75.2934 6.74696C76.0385 2.86406 74.0751 0.627831 69.628 0.627831C65.1809 0.627831 58.7451 2.86406 51.7243 6.74696Z" fill="#2E2E2E"/>
<path d="M45.6147 36.2223V33.0706H45.9255V36.2223H45.6147Z" fill="#2E2E2E"/>
<path d="M48.598 36.2223H48.2961V34.9305C48.2961 34.6583 48.2562 34.46 48.1763 34.3357C48.0964 34.2085 47.9706 34.1448 47.7989 34.1448C47.6806 34.1448 47.5637 34.1744 47.4483 34.2336C47.3328 34.2898 47.2308 34.3683 47.142 34.4689C47.0562 34.5665 46.994 34.679 46.9555 34.8062V36.2223H46.6537V33.9096H46.9289V34.4334C46.991 34.3209 47.0724 34.2233 47.173 34.1404C47.2737 34.0546 47.3876 33.988 47.5148 33.9406C47.6421 33.8933 47.7738 33.8696 47.9099 33.8696C48.0372 33.8696 48.1452 33.8933 48.234 33.9406C48.3227 33.988 48.3938 34.0561 48.447 34.1448C48.5003 34.2307 48.5388 34.3357 48.5625 34.46C48.5861 34.5813 48.598 34.7175 48.598 34.8684V36.2223Z" fill="#2E2E2E"/>
<path d="M50.3297 36.1113C50.3061 36.1202 50.2691 36.1365 50.2188 36.1601C50.1684 36.1838 50.1078 36.2045 50.0368 36.2223C49.9657 36.24 49.8888 36.2489 49.8059 36.2489C49.7201 36.2489 49.6387 36.2326 49.5618 36.2001C49.4878 36.1675 49.4286 36.1187 49.3842 36.0536C49.3398 35.9855 49.3176 35.9027 49.3176 35.805V34.1493H48.998V33.9096H49.3176V33.1283H49.6195V33.9096H50.1522V34.1493H49.6195V35.7207C49.6254 35.8035 49.655 35.8657 49.7083 35.9071C49.7645 35.9485 49.8281 35.9693 49.8991 35.9693C49.982 35.9693 50.0575 35.9559 50.1255 35.9293C50.1936 35.8997 50.235 35.879 50.2498 35.8672L50.3297 36.1113Z" fill="#2E2E2E"/>
<path d="M51.6666 36.2667C51.5009 36.2667 51.347 36.2356 51.205 36.1735C51.0629 36.1083 50.9401 36.021 50.8365 35.9116C50.733 35.7991 50.6516 35.6704 50.5924 35.5254C50.5362 35.3804 50.5081 35.225 50.5081 35.0593C50.5081 34.8432 50.5569 34.645 50.6545 34.4644C50.7552 34.2839 50.8928 34.1404 51.0674 34.0339C51.242 33.9244 51.4402 33.8696 51.6622 33.8696C51.8901 33.8696 52.0883 33.9244 52.257 34.0339C52.4287 34.1434 52.5633 34.2884 52.661 34.4689C52.7586 34.6464 52.8075 34.8418 52.8075 35.0548C52.8075 35.0785 52.8075 35.1022 52.8075 35.1259C52.8075 35.1466 52.806 35.1628 52.803 35.1747H50.8232C50.838 35.3404 50.8839 35.4884 50.9608 35.6186C51.0407 35.7458 51.1428 35.8479 51.2671 35.9249C51.3944 35.9989 51.532 36.0358 51.68 36.0358C51.8309 36.0358 51.9729 35.9974 52.1061 35.9204C52.2422 35.8435 52.3369 35.7429 52.3902 35.6186L52.6521 35.6896C52.6047 35.7991 52.5322 35.8982 52.4346 35.987C52.3369 36.0758 52.2215 36.1453 52.0883 36.1957C51.9581 36.243 51.8176 36.2667 51.6666 36.2667ZM50.8143 34.9572H52.5234C52.5115 34.7885 52.4657 34.6405 52.3858 34.5133C52.3088 34.386 52.2067 34.2869 52.0795 34.2159C51.9552 34.1419 51.8176 34.1049 51.6666 34.1049C51.5157 34.1049 51.3781 34.1419 51.2538 34.2159C51.1295 34.2869 51.0274 34.3875 50.9475 34.5177C50.8706 34.645 50.8262 34.7914 50.8143 34.9572Z" fill="#2E2E2E"/>
<path d="M54.4273 34.1759C54.2261 34.1818 54.0485 34.238 53.8946 34.3446C53.7437 34.4511 53.6372 34.5976 53.575 34.784V36.2223H53.2732V33.9096H53.5573V34.4644C53.6372 34.3017 53.7422 34.17 53.8724 34.0694C54.0056 33.9688 54.1462 33.9125 54.2941 33.9007C54.3237 33.8977 54.3489 33.8962 54.3696 33.8962C54.3933 33.8962 54.4125 33.8977 54.4273 33.9007V34.1759Z" fill="#2E2E2E"/>
<path d="M56.7737 36.2223H56.4719V34.9305C56.4719 34.6583 56.4319 34.46 56.352 34.3357C56.2721 34.2085 56.1463 34.1448 55.9747 34.1448C55.8563 34.1448 55.7394 34.1744 55.624 34.2336C55.5086 34.2898 55.4065 34.3683 55.3177 34.4689C55.2319 34.5665 55.1697 34.679 55.1313 34.8062V36.2223H54.8294V33.9096H55.1046V34.4334C55.1668 34.3209 55.2482 34.2233 55.3488 34.1404C55.4494 34.0546 55.5633 33.988 55.6906 33.9406C55.8178 33.8933 55.9495 33.8696 56.0857 33.8696C56.2129 33.8696 56.3209 33.8933 56.4097 33.9406C56.4985 33.988 56.5695 34.0561 56.6228 34.1448C56.6761 34.2307 56.7145 34.3357 56.7382 34.46C56.7619 34.5813 56.7737 34.7175 56.7737 34.8684V36.2223Z" fill="#2E2E2E"/>
<path d="M58.4162 36.2667C58.2505 36.2667 58.0966 36.2356 57.9545 36.1735C57.8125 36.1083 57.6897 36.021 57.5861 35.9116C57.4825 35.7991 57.4011 35.6704 57.3419 35.5254C57.2857 35.3804 57.2576 35.225 57.2576 35.0593C57.2576 34.8432 57.3064 34.645 57.4041 34.4644C57.5047 34.2839 57.6423 34.1404 57.8169 34.0339C57.9915 33.9244 58.1898 33.8696 58.4117 33.8696C58.6396 33.8696 58.8379 33.9244 59.0066 34.0339C59.1782 34.1434 59.3129 34.2884 59.4105 34.4689C59.5082 34.6464 59.557 34.8418 59.557 35.0548C59.557 35.0785 59.557 35.1022 59.557 35.1259C59.557 35.1466 59.5555 35.1628 59.5526 35.1747H57.5728C57.5876 35.3404 57.6334 35.4884 57.7104 35.6186C57.7903 35.7458 57.8924 35.8479 58.0167 35.9249C58.1439 35.9989 58.2815 36.0358 58.4295 36.0358C58.5804 36.0358 58.7225 35.9974 58.8556 35.9204C58.9918 35.8435 59.0865 35.7429 59.1397 35.6186L59.4016 35.6896C59.3543 35.7991 59.2818 35.8982 59.1841 35.987C59.0865 36.0758 58.9711 36.1453 58.8379 36.1957C58.7077 36.243 58.5671 36.2667 58.4162 36.2667ZM57.5639 34.9572H59.2729C59.2611 34.7885 59.2152 34.6405 59.1353 34.5133C59.0584 34.386 58.9563 34.2869 58.829 34.2159C58.7047 34.1419 58.5671 34.1049 58.4162 34.1049C58.2652 34.1049 58.1276 34.1419 58.0033 34.2159C57.8791 34.2869 57.777 34.3875 57.6971 34.5177C57.6201 34.645 57.5757 34.7914 57.5639 34.9572Z" fill="#2E2E2E"/>
<path d="M61.1108 36.1113C61.0871 36.1202 61.0501 36.1365 60.9998 36.1601C60.9495 36.1838 60.8888 36.2045 60.8178 36.2223C60.7468 36.24 60.6698 36.2489 60.587 36.2489C60.5012 36.2489 60.4198 36.2326 60.3428 36.2001C60.2689 36.1675 60.2097 36.1187 60.1653 36.0536C60.1209 35.9855 60.0987 35.9027 60.0987 35.805V34.1493H59.7791V33.9096H60.0987V33.1283H60.4005V33.9096H60.9332V34.1493H60.4005V35.7207C60.4065 35.8035 60.4361 35.8657 60.4893 35.9071C60.5456 35.9485 60.6092 35.9693 60.6802 35.9693C60.7631 35.9693 60.8385 35.9559 60.9066 35.9293C60.9747 35.8997 61.0161 35.879 61.0309 35.8672L61.1108 36.1113Z" fill="#2E2E2E"/>
<path d="M64.5237 33.661C64.4793 33.6107 64.4275 33.5663 64.3683 33.5278C64.3091 33.4864 64.2426 33.4509 64.1686 33.4213C64.0946 33.3917 64.0147 33.368 63.9289 33.3502C63.846 33.3325 63.7572 33.3236 63.6625 33.3236C63.3873 33.3236 63.1846 33.3769 63.0544 33.4834C62.9271 33.587 62.8635 33.729 62.8635 33.9096C62.8635 34.0339 62.8931 34.1315 62.9523 34.2025C63.0144 34.2736 63.1106 34.3313 63.2408 34.3757C63.371 34.42 63.5368 34.4659 63.738 34.5133C63.9629 34.5606 64.1567 34.6168 64.3195 34.682C64.4823 34.7471 64.608 34.8358 64.6968 34.9483C64.7856 35.0578 64.83 35.2072 64.83 35.3966C64.83 35.5416 64.8019 35.6674 64.7456 35.7739C64.6894 35.8805 64.611 35.9693 64.5104 36.0403C64.4098 36.1113 64.2899 36.1646 64.1508 36.2001C64.0117 36.2326 63.8593 36.2489 63.6936 36.2489C63.5308 36.2489 63.374 36.2326 63.2231 36.2001C63.0751 36.1646 62.9345 36.1143 62.8014 36.0492C62.6682 35.9811 62.5439 35.8953 62.4285 35.7917L62.5838 35.5387C62.6401 35.5979 62.7067 35.6541 62.7836 35.7074C62.8635 35.7577 62.9508 35.8035 63.0455 35.845C63.1432 35.8864 63.2467 35.919 63.3562 35.9426C63.4687 35.9633 63.5841 35.9737 63.7025 35.9737C63.954 35.9737 64.1493 35.9278 64.2884 35.8361C64.4305 35.7444 64.5015 35.6082 64.5015 35.4277C64.5015 35.2975 64.466 35.1939 64.395 35.117C64.3239 35.0371 64.2174 34.972 64.0753 34.9217C63.9333 34.8713 63.7587 34.8225 63.5515 34.7752C63.3326 34.7249 63.1476 34.6686 62.9967 34.6065C62.8457 34.5443 62.7318 34.463 62.6549 34.3623C62.5809 34.2588 62.5439 34.1226 62.5439 33.954C62.5439 33.7586 62.5912 33.5944 62.6859 33.4612C62.7836 33.3251 62.9168 33.223 63.0855 33.1549C63.2541 33.0839 63.448 33.0484 63.667 33.0484C63.8061 33.0484 63.9348 33.0632 64.0532 33.0928C64.1745 33.1194 64.2855 33.1594 64.3861 33.2126C64.4897 33.2659 64.5858 33.3325 64.6746 33.4124L64.5237 33.661Z" fill="#2E2E2E"/>
<path d="M66.3145 36.2667C66.1488 36.2667 65.9949 36.2356 65.8528 36.1735C65.7108 36.1083 65.588 36.021 65.4844 35.9116C65.3808 35.7991 65.2994 35.6704 65.2402 35.5254C65.184 35.3804 65.1559 35.225 65.1559 35.0593C65.1559 34.8432 65.2047 34.645 65.3024 34.4644C65.403 34.2839 65.5406 34.1404 65.7152 34.0339C65.8898 33.9244 66.0881 33.8696 66.31 33.8696C66.5379 33.8696 66.7362 33.9244 66.9049 34.0339C67.0765 34.1434 67.2112 34.2884 67.3088 34.4689C67.4065 34.6464 67.4553 34.8418 67.4553 35.0548C67.4553 35.0785 67.4553 35.1022 67.4553 35.1259C67.4553 35.1466 67.4538 35.1628 67.4509 35.1747H65.4711C65.4859 35.3404 65.5317 35.4884 65.6087 35.6186C65.6886 35.7458 65.7907 35.8479 65.915 35.9249C66.0422 35.9989 66.1798 36.0358 66.3278 36.0358C66.4787 36.0358 66.6208 35.9974 66.7539 35.9204C66.8901 35.8435 66.9848 35.7429 67.038 35.6186L67.2999 35.6896C67.2526 35.7991 67.1801 35.8982 67.0824 35.987C66.9848 36.0758 66.8694 36.1453 66.7362 36.1957C66.606 36.243 66.4654 36.2667 66.3145 36.2667ZM65.4622 34.9572H67.1712C67.1594 34.7885 67.1135 34.6405 67.0336 34.5133C66.9567 34.386 66.8546 34.2869 66.7273 34.2159C66.603 34.1419 66.4654 34.1049 66.3145 34.1049C66.1636 34.1049 66.0259 34.1419 65.9017 34.2159C65.7774 34.2869 65.6753 34.3875 65.5954 34.5177C65.5184 34.645 65.474 34.7914 65.4622 34.9572Z" fill="#2E2E2E"/>
<path d="M69.0752 34.1759C68.8739 34.1818 68.6964 34.238 68.5425 34.3446C68.3916 34.4511 68.285 34.5976 68.2229 34.784V36.2223H67.921V33.9096H68.2051V34.4644C68.285 34.3017 68.3901 34.17 68.5203 34.0694C68.6535 33.9688 68.794 33.9125 68.942 33.9007C68.9716 33.8977 68.9967 33.8962 69.0175 33.8962C69.0411 33.8962 69.0604 33.8977 69.0752 33.9007V34.1759Z" fill="#2E2E2E"/>
<path d="M70.1653 36.2223L69.2287 33.9096H69.5439L70.334 35.9204L71.1286 33.9096H71.426L70.4894 36.2223H70.1653Z" fill="#2E2E2E"/>
<path d="M71.8442 36.2223V33.9096H72.146V36.2223H71.8442ZM71.8442 33.4257V32.9818H72.146V33.4257H71.8442Z" fill="#2E2E2E"/>
<path d="M73.8141 36.2667C73.6454 36.2667 73.49 36.2356 73.348 36.1735C73.2089 36.1083 73.0861 36.0196 72.9795 35.9071C72.876 35.7947 72.7946 35.6659 72.7354 35.5209C72.6792 35.3759 72.6511 35.222 72.6511 35.0593C72.6511 34.8403 72.6999 34.6405 72.7975 34.46C72.8952 34.2795 73.0313 34.136 73.2059 34.0294C73.3805 33.9229 73.5818 33.8696 73.8096 33.8696C74.0257 33.8696 74.2165 33.9199 74.3823 34.0205C74.548 34.1182 74.6708 34.2514 74.7507 34.42L74.4577 34.5133C74.3926 34.3949 74.3009 34.3032 74.1825 34.238C74.0671 34.17 73.9384 34.136 73.7963 34.136C73.6424 34.136 73.5019 34.1759 73.3746 34.2558C73.2474 34.3357 73.1453 34.4452 73.0683 34.5843C72.9943 34.7234 72.9573 34.8817 72.9573 35.0593C72.9573 35.2339 72.9958 35.3922 73.0728 35.5342C73.1497 35.6763 73.2518 35.7902 73.3791 35.876C73.5063 35.9589 73.6469 36.0003 73.8008 36.0003C73.9014 36.0003 73.9976 35.9826 74.0893 35.9471C74.184 35.9116 74.2654 35.8642 74.3334 35.805C74.4045 35.7429 74.4518 35.6763 74.4755 35.6053L74.7729 35.694C74.7315 35.8035 74.6619 35.9027 74.5643 35.9915C74.4696 36.0773 74.3571 36.1453 74.2269 36.1957C74.0997 36.243 73.962 36.2667 73.8141 36.2667Z" fill="#2E2E2E"/>
<path d="M76.2242 36.2667C76.0585 36.2667 75.9046 36.2356 75.7626 36.1735C75.6205 36.1083 75.4977 36.021 75.3941 35.9116C75.2905 35.7991 75.2092 35.6704 75.15 35.5254C75.0937 35.3804 75.0656 35.225 75.0656 35.0593C75.0656 34.8432 75.1145 34.645 75.2121 34.4644C75.3127 34.2839 75.4503 34.1404 75.6249 34.0339C75.7995 33.9244 75.9978 33.8696 76.2198 33.8696C76.4476 33.8696 76.6459 33.9244 76.8146 34.0339C76.9862 34.1434 77.1209 34.2884 77.2185 34.4689C77.3162 34.6464 77.365 34.8418 77.365 35.0548C77.365 35.0785 77.365 35.1022 77.365 35.1259C77.365 35.1466 77.3636 35.1628 77.3606 35.1747H75.3808C75.3956 35.3404 75.4415 35.4884 75.5184 35.6186C75.5983 35.7458 75.7004 35.8479 75.8247 35.9249C75.952 35.9989 76.0896 36.0358 76.2375 36.0358C76.3885 36.0358 76.5305 35.9974 76.6637 35.9204C76.7998 35.8435 76.8945 35.7429 76.9478 35.6186L77.2097 35.6896C77.1623 35.7991 77.0898 35.8982 76.9922 35.987C76.8945 36.0758 76.7791 36.1453 76.6459 36.1957C76.5157 36.243 76.3751 36.2667 76.2242 36.2667ZM75.3719 34.9572H77.0809C77.0691 34.7885 77.0232 34.6405 76.9433 34.5133C76.8664 34.386 76.7643 34.2869 76.637 34.2159C76.5127 34.1419 76.3751 34.1049 76.2242 34.1049C76.0733 34.1049 75.9357 34.1419 75.8114 34.2159C75.6871 34.2869 75.585 34.3875 75.5051 34.5177C75.4281 34.645 75.3838 34.7914 75.3719 34.9572Z" fill="#2E2E2E"/>
<path d="M79.0243 36.2223V33.0706H80.3294C80.4655 33.0706 80.5898 33.0987 80.7023 33.1549C80.8177 33.2112 80.9168 33.2881 80.9997 33.3858C81.0825 33.4805 81.1476 33.587 81.195 33.7054C81.2423 33.8208 81.266 33.9392 81.266 34.0605C81.266 34.2321 81.2275 34.3949 81.1506 34.5488C81.0766 34.6997 80.9716 34.8225 80.8354 34.9172C80.6993 35.0119 80.5395 35.0593 80.356 35.0593H79.3351V36.2223H79.0243ZM79.3351 34.784H80.3427C80.467 34.784 80.575 34.75 80.6668 34.682C80.7585 34.6139 80.8295 34.5251 80.8798 34.4156C80.9301 34.3061 80.9553 34.1877 80.9553 34.0605C80.9553 33.9303 80.9257 33.8104 80.8665 33.7009C80.8073 33.5914 80.7289 33.5056 80.6312 33.4435C80.5365 33.3784 80.4315 33.3458 80.3161 33.3458H79.3351V34.784Z" fill="#2E2E2E"/>
<path d="M82.8777 34.1759C82.6765 34.1818 82.4989 34.238 82.345 34.3446C82.1941 34.4511 82.0875 34.5976 82.0254 34.784V36.2223H81.7235V33.9096H82.0076V34.4644C82.0875 34.3017 82.1926 34.17 82.3228 34.0694C82.456 33.9688 82.5965 33.9125 82.7445 33.9007C82.7741 33.8977 82.7993 33.8962 82.82 33.8962C82.8437 33.8962 82.8629 33.8977 82.8777 33.9007V34.1759Z" fill="#2E2E2E"/>
<path d="M84.1916 36.2667C84.0258 36.2667 83.872 36.2356 83.7299 36.1735C83.5908 36.1083 83.4695 36.021 83.3659 35.9116C83.2653 35.7991 83.1869 35.6718 83.1306 35.5298C83.0744 35.3848 83.0463 35.2324 83.0463 35.0726C83.0463 34.9069 83.0744 34.753 83.1306 34.6109C83.1869 34.4659 83.2668 34.3387 83.3703 34.2292C83.4739 34.1167 83.5953 34.0294 83.7343 33.9673C83.8764 33.9022 84.0303 33.8696 84.196 33.8696C84.3617 33.8696 84.5141 33.9022 84.6532 33.9673C84.7923 34.0294 84.9136 34.1167 85.0172 34.2292C85.1208 34.3387 85.2007 34.4659 85.2569 34.6109C85.3132 34.753 85.3413 34.9069 85.3413 35.0726C85.3413 35.2324 85.3132 35.3848 85.2569 35.5298C85.2007 35.6718 85.1208 35.7991 85.0172 35.9116C84.9166 36.021 84.7953 36.1083 84.6532 36.1735C84.5141 36.2356 84.3602 36.2667 84.1916 36.2667ZM83.3526 35.077C83.3526 35.2487 83.3896 35.4055 83.4636 35.5476C83.5405 35.6866 83.6426 35.7976 83.7699 35.8805C83.8971 35.9604 84.0377 36.0003 84.1916 36.0003C84.3455 36.0003 84.486 35.9589 84.6133 35.876C84.7405 35.7932 84.8426 35.6807 84.9196 35.5387C84.9965 35.3937 85.035 35.2368 85.035 35.0681C85.035 34.8965 84.9965 34.7397 84.9196 34.5976C84.8426 34.4556 84.7405 34.3431 84.6133 34.2602C84.486 34.1774 84.3455 34.136 84.1916 34.136C84.0377 34.136 83.8971 34.1789 83.7699 34.2647C83.6456 34.3505 83.5449 34.4644 83.468 34.6065C83.3911 34.7456 83.3526 34.9024 83.3526 35.077Z" fill="#2E2E2E"/>
<path d="M86.4561 36.2223L85.5195 33.9096H85.8347L86.6248 35.9204L87.4194 33.9096H87.7168L86.7802 36.2223H86.4561Z" fill="#2E2E2E"/>
<path d="M88.135 36.2223V33.9096H88.4368V36.2223H88.135ZM88.135 33.4257V32.9818H88.4368V33.4257H88.135Z" fill="#2E2E2E"/>
<path d="M88.9463 35.0726C88.9463 34.8536 88.9907 34.6538 89.0795 34.4733C89.1712 34.2898 89.297 34.1434 89.4568 34.0339C89.6166 33.9244 89.7986 33.8696 90.0028 33.8696C90.1951 33.8696 90.3668 33.9214 90.5177 34.025C90.6716 34.1256 90.7914 34.2484 90.8773 34.3934V32.9818H91.1791V35.8583C91.1791 35.8997 91.188 35.9308 91.2057 35.9515C91.2235 35.9693 91.2501 35.9796 91.2856 35.9826V36.2223C91.2265 36.2312 91.1806 36.2341 91.148 36.2312C91.0859 36.2282 91.0311 36.203 90.9838 36.1557C90.9364 36.1083 90.9128 36.0566 90.9128 36.0003V35.7739C90.821 35.9249 90.6967 36.0447 90.5399 36.1335C90.383 36.2223 90.2203 36.2667 90.0516 36.2667C89.8918 36.2667 89.7438 36.2341 89.6077 36.169C89.4745 36.1039 89.3576 36.0151 89.257 35.9027C89.1594 35.7902 89.0824 35.663 89.0262 35.5209C88.9729 35.3759 88.9463 35.2265 88.9463 35.0726ZM90.8773 35.4277V34.713C90.8388 34.6065 90.7766 34.5103 90.6908 34.4245C90.605 34.3357 90.5073 34.2662 90.3978 34.2159C90.2913 34.1626 90.1848 34.136 90.0782 34.136C89.9539 34.136 89.8415 34.1626 89.7409 34.2159C89.6403 34.2662 89.553 34.3357 89.479 34.4245C89.4079 34.5133 89.3532 34.6139 89.3147 34.7263C89.2763 34.8388 89.257 34.9542 89.257 35.0726C89.257 35.1969 89.2777 35.3152 89.3192 35.4277C89.3636 35.5402 89.4257 35.6408 89.5056 35.7296C89.5855 35.8154 89.6772 35.882 89.7808 35.9293C89.8844 35.9767 89.9969 36.0003 90.1182 36.0003C90.1951 36.0003 90.275 35.9855 90.3579 35.9559C90.4408 35.9264 90.5192 35.8864 90.5932 35.8361C90.6701 35.7828 90.7337 35.7207 90.784 35.6497C90.8344 35.5786 90.8654 35.5046 90.8773 35.4277Z" fill="#2E2E2E"/>
<path d="M92.8618 36.2667C92.6961 36.2667 92.5422 36.2356 92.4001 36.1735C92.2581 36.1083 92.1353 36.021 92.0317 35.9116C91.9281 35.7991 91.8468 35.6704 91.7876 35.5254C91.7313 35.3804 91.7032 35.225 91.7032 35.0593C91.7032 34.8432 91.7521 34.645 91.8497 34.4644C91.9503 34.2839 92.0879 34.1404 92.2625 34.0339C92.4371 33.9244 92.6354 33.8696 92.8574 33.8696C93.0852 33.8696 93.2835 33.9244 93.4522 34.0339C93.6238 34.1434 93.7585 34.2884 93.8561 34.4689C93.9538 34.6464 94.0026 34.8418 94.0026 35.0548C94.0026 35.0785 94.0026 35.1022 94.0026 35.1259C94.0026 35.1466 94.0011 35.1628 93.9982 35.1747H92.0184C92.0332 35.3404 92.0791 35.4884 92.156 35.6186C92.2359 35.7458 92.338 35.8479 92.4623 35.9249C92.5895 35.9989 92.7272 36.0358 92.8751 36.0358C93.0261 36.0358 93.1681 35.9974 93.3013 35.9204C93.4374 35.8435 93.5321 35.7429 93.5854 35.6186L93.8473 35.6896C93.7999 35.7991 93.7274 35.8982 93.6298 35.987C93.5321 36.0758 93.4167 36.1453 93.2835 36.1957C93.1533 36.243 93.0127 36.2667 92.8618 36.2667ZM92.0095 34.9572H93.7185C93.7067 34.7885 93.6608 34.6405 93.5809 34.5133C93.504 34.386 93.4019 34.2869 93.2746 34.2159C93.1503 34.1419 93.0127 34.1049 92.8618 34.1049C92.7109 34.1049 92.5733 34.1419 92.449 34.2159C92.3247 34.2869 92.2226 34.3875 92.1427 34.5177C92.0657 34.645 92.0214 34.7914 92.0095 34.9572Z" fill="#2E2E2E"/>
<path d="M95.6225 34.1759C95.4212 34.1818 95.2437 34.238 95.0898 34.3446C94.9389 34.4511 94.8323 34.5976 94.7702 34.784V36.2223H94.4683V33.9096H94.7524V34.4644C94.8323 34.3017 94.9374 34.17 95.0676 34.0694C95.2008 33.9688 95.3413 33.9125 95.4893 33.9007C95.5189 33.8977 95.5441 33.8962 95.5648 33.8962C95.5885 33.8962 95.6077 33.8977 95.6225 33.9007V34.1759Z" fill="#2E2E2E"/>
</svg>
